<svg class="socials__icon" width="40" height="40" viewBox="0 0 41 40" fill="none" xmlns="http://www.w3.org/2000/svg">
                  <path d="M20.4585 13.0251C21.637 13.0251 22.5956 13.9837 22.5956 15.1622C22.5956 16.3398 21.6367 17.2984 20.4585 17.2984C19.2807 17.2984 18.3218 16.3398 18.3218 15.1622C18.3216 13.9835 19.2809 13.0251 20.4585 13.0251ZM20.4585 20.322C23.3052 20.322 25.6202 18.0077 25.6202 15.1622C25.6202 12.3153 23.3054 10 20.4585 10C17.612 10 15.2967 12.3155 15.2967 15.1622C15.2967 18.0077 17.612 20.322 20.4585 20.322ZM22.5467 24.5323C23.6085 24.2905 24.6219 23.8709 25.5439 23.2913C25.8833 23.0777 26.124 22.7381 26.213 22.3471C26.302 21.9561 26.232 21.5457 26.0185 21.2063C25.9129 21.038 25.7751 20.8923 25.6131 20.7773C25.4511 20.6624 25.2681 20.5805 25.0744 20.5363C24.8807 20.4922 24.6803 20.4866 24.4844 20.52C24.2886 20.5534 24.1013 20.6251 23.9332 20.7309C21.8186 22.0604 19.0969 22.0594 16.9839 20.7309C16.8159 20.625 16.6286 20.5534 16.4328 20.52C16.237 20.4865 16.0365 20.4921 15.8429 20.5362C15.6492 20.5804 15.4662 20.6623 15.3042 20.7773C15.1422 20.8922 15.0045 21.038 14.8989 21.2063C14.6853 21.5456 14.6152 21.9559 14.7041 22.3469C14.793 22.7379 15.0335 23.0776 15.3728 23.2913C16.2947 23.8707 17.3079 24.2902 18.3695 24.5323L15.484 27.4183C15.2004 27.702 15.0412 28.0867 15.0412 28.4878C15.0413 28.8888 15.2007 29.2735 15.4844 29.5571C15.768 29.8406 16.1527 29.9999 16.5538 29.9998C16.9549 29.9997 17.3395 29.8403 17.6231 29.5567L20.458 26.7213L23.2946 29.5569C23.4348 29.6974 23.6014 29.8088 23.7847 29.8848C23.9681 29.9609 24.1646 30 24.3631 30C24.5616 30 24.7582 29.9609 24.9415 29.8848C25.1249 29.8088 25.2914 29.6974 25.4317 29.5569C25.5724 29.4167 25.684 29.2501 25.7601 29.0666C25.8363 28.8832 25.8755 28.6865 25.8755 28.4879C25.8755 28.2892 25.8363 28.0926 25.7601 27.9091C25.684 27.7257 25.5724 27.559 25.4317 27.4188L22.5467 24.5323Z" fill="#171520"></path>
                </svg>