<svg class="socials__icon" width="40" height="40" viewBox="0 0 41 40" fill="none" xmlns="http://www.w3.org/2000/svg">
                  <g clip-path="url(#clip0_515_23321)">
                  <path d="M21.9833 20.5237H15.3241V17.8557H21.9833C22.3723 17.8557 22.6427 17.9244 22.7785 18.0442C22.9142 18.1641 22.9983 18.3864 22.9983 18.7112V19.6692C22.9983 20.0114 22.9142 20.2338 22.7785 20.3536C22.6427 20.4735 22.3723 20.5247 21.9833 20.5247V20.5237ZM22.4401 15.3404H12.5V26.7501H15.3241V23.038H20.5287L22.9983 26.7501H26.1607L23.4379 23.0206C24.4417 22.87 24.8925 22.5585 25.2643 22.0452C25.636 21.5319 25.8224 20.7112 25.8224 19.6159V18.7604C25.8224 18.1108 25.7545 17.5975 25.636 17.2041C25.5175 16.8106 25.3149 16.4684 25.0272 16.1611C24.7233 15.8701 24.385 15.6652 23.9788 15.5279C23.5726 15.408 23.0651 15.3394 22.4401 15.3394V15.3404Z" fill="#171520"></path>
                  <path d="M28.3303 15.3393C29.5286 15.3393 30.4999 14.3679 30.4999 13.1696C30.4999 11.9714 29.5286 11 28.3303 11C27.132 11 26.1606 11.9714 26.1606 13.1696C26.1606 14.3679 27.132 15.3393 28.3303 15.3393Z" fill="#171520"></path>
                  </g>
                  <defs>
                  <clipPath id="clip0_515_23321">
                  <rect width="18" height="15.75" fill="white" transform="translate(12.5 11)"></rect>
                  </clipPath>
                  </defs>
                </svg>