<svg class="socials__icon" width="40" height="40" viewBox="0 0 41 40" fill="none" xmlns="http://www.w3.org/2000/svg">
    <path d="M11.5218 19.6846C11.5218 19.6846 18.8931 16.4833 21.4495 15.356C22.4296 14.9051 25.753 13.4622 25.753 13.4622C25.753 13.4622 27.2869 12.831 27.1591 14.364C27.1165 14.9953 26.7756 17.2046 26.4348 19.5944C25.9234 22.9761 25.3695 26.6734 25.3695 26.6734C25.3695 26.6734 25.2843 27.7105 24.56 27.8909C23.8357 28.0712 22.6426 27.2596 22.4296 27.0792C22.2591 26.944 19.2339 24.9149 18.1261 23.923C17.8278 23.6525 17.487 23.1114 18.1687 22.4801C19.7026 20.9922 21.5348 19.1435 22.6426 17.9712C23.1539 17.4301 23.6652 16.1676 21.5348 17.7006C18.5096 19.91 15.527 21.9842 15.527 21.9842C15.527 21.9842 14.8452 22.435 13.567 22.0292C12.2887 21.6235 10.7974 21.0824 10.7974 21.0824C10.7974 21.0824 9.77487 20.406 11.5218 19.6846Z" fill="#171520"/>
</svg>