<svg class="socials__icon" width="40" height="40" viewBox="0 0 41 40" fill="none" xmlns="http://www.w3.org/2000/svg">
    <path fill-rule="evenodd" clip-rule="evenodd" d="M30.0411 15.7336C30.1801 15.3107 30.0411 15 29.3794 15H27.1914C26.635 15 26.3786 15.2684 26.2395 15.5644C26.2395 15.5644 25.1268 18.038 23.5505 19.6448C23.0406 20.1099 22.8087 20.2579 22.5306 20.2579C22.3915 20.2579 22.1902 20.1099 22.1902 19.6871V15.7336C22.1902 15.2261 22.0287 15 21.5651 15H18.1268C17.7791 15 17.57 15.2355 17.57 15.4587C17.57 15.9397 18.3581 16.0507 18.4393 17.4038V20.3425C18.4393 20.9868 18.3118 21.1037 18.0336 21.1037C17.2919 21.1037 15.4876 18.619 14.4174 15.7758C14.2077 15.2232 13.9974 15 13.4382 15H11.2502C10.625 15 10.5 15.2684 10.5 15.5644C10.5 16.093 11.2418 18.7146 13.9539 22.1819C15.7619 24.5498 18.3093 25.8333 20.6274 25.8333C22.0182 25.8333 22.1902 25.5482 22.1902 25.0572V23.2675C22.1902 22.6974 22.322 22.5836 22.7624 22.5836C23.0869 22.5836 23.6433 22.7316 24.9414 23.8732C26.4249 25.2263 26.6695 25.8333 27.504 25.8333H29.692C30.3171 25.8333 30.6297 25.5482 30.4494 24.9856C30.252 24.4249 29.5437 23.6114 28.6039 22.647C28.0939 22.0973 27.3289 21.5054 27.0971 21.2093C26.7726 20.8288 26.8653 20.6596 27.0971 20.3214C27.0971 20.3214 29.7629 16.8964 30.0411 15.7336Z" fill="#171520"/>
</svg>